<svg width="397" height="390" xmlns="http://www.w3.org/2000/svg" xmlns:xlink="http://www.w3.org/1999/xlink" xml:space="preserve" overflow="hidden"><defs><clipPath id="clip0"><rect x="2049" y="540" width="397" height="390"/></clipPath></defs><g clip-path="url(#clip0)" transform="translate(-2049 -540)"><path d="M2049 605.001C2049 569.102 2078.1 540 2114 540L2381 540C2416.9 540 2446 569.102 2446 605.001L2446 864.999C2446 900.898 2416.9 930 2381 930L2114 930C2078.1 930 2049 900.898 2049 864.999Z" fill="#ABC53C" fill-rule="evenodd"/><path d="M2402 768.838C2402 761.227 2395.82 755 2388.27 755 2385.53 755 2383.13 755.692 2381.07 757.076L2322.38 790.978C2323.07 794.784 2323.07 798.589 2322.38 802.74 2319.64 815.541 2307.63 824.189 2294.58 824.189L2233.84 824.189 2233.84 810.351 2295.61 810.351C2303.16 810.351 2309.34 804.124 2309.34 796.513 2309.34 788.903 2303.16 782.676 2295.61 782.676 2295.61 782.676 2213.94 782.676 2213.25 782.676 2207.42 782.676 2201.93 784.406 2197.12 787.173L2100 834.568 2148.05 883C2170.35 860.514 2199.18 851.865 2230.41 851.865L2294.58 851.865C2297.67 851.865 2300.42 850.827 2302.82 849.097L2397.2 779.562C2399.94 776.794 2402 772.989 2402 768.838Z" fill="#FFFFFF" fill-rule="evenodd"/><g><g><g><path d="M2210.44 638.342C2210.44 652.114 2199.27 663.279 2185.5 663.279 2171.73 663.279 2160.56 652.114 2160.56 638.342 2160.56 624.569 2171.73 613.404 2185.5 613.404 2199.27 613.404 2210.44 624.569 2210.44 638.342Z" fill="#FFFFFF"/><path d="M2343.44 638.342C2343.44 652.114 2332.27 663.279 2318.5 663.279 2304.73 663.279 2293.56 652.114 2293.56 638.342 2293.56 624.569 2304.73 613.404 2318.5 613.404 2332.27 613.404 2343.44 624.569 2343.44 638.342Z" fill="#FFFFFF"/><path d="M2301.87 758.596 2301.87 733.659C2301.87 729.779 2300.21 725.9 2296.89 723.683 2290.24 718.142 2281.37 714.263 2272.5 712.046 2266.41 710.383 2259.2 708.721 2252 708.721 2245.35 708.721 2238.15 709.829 2231.5 712.046 2222.63 714.263 2214.32 718.696 2207.11 723.683 2203.79 726.454 2202.12 729.779 2202.12 733.659L2202.12 758.596 2301.87 758.596Z" fill="#FFFFFF"/><path d="M2276.94 677.133C2276.94 690.906 2265.77 702.071 2252 702.071 2238.23 702.071 2227.06 690.906 2227.06 677.133 2227.06 663.361 2238.23 652.196 2252 652.196 2265.77 652.196 2276.94 663.361 2276.94 677.133Z" fill="#FFFFFF"/><path d="M2363.39 684.892C2356.74 679.35 2347.87 675.471 2339 673.254 2332.91 671.592 2325.7 669.929 2318.5 669.929 2311.85 669.929 2304.65 671.038 2298 673.254 2294.67 674.363 2291.35 675.471 2288.02 677.133L2288.02 677.688C2288.02 687.109 2284.14 695.975 2278.05 702.071 2288.57 705.396 2296.89 709.829 2303.54 714.817 2305.2 716.479 2306.86 717.588 2307.97 719.804L2368.37 719.804 2368.37 694.867C2368.37 690.988 2366.71 687.109 2363.39 684.892Z" fill="#FFFFFF"/><path d="M2200.46 714.817 2200.46 714.817C2208.22 709.275 2217.09 704.842 2225.95 702.071 2219.86 695.421 2215.98 687.109 2215.98 677.688 2215.98 677.133 2215.98 677.133 2215.98 676.579 2212.65 675.471 2209.33 673.808 2206 673.254 2199.91 671.592 2192.7 669.929 2185.5 669.929 2178.85 669.929 2171.65 671.038 2165 673.254 2156.13 676.025 2147.82 679.904 2140.61 684.892 2137.29 687.109 2135.62 690.988 2135.62 694.867L2135.62 719.804 2195.47 719.804C2197.14 717.588 2198.25 716.479 2200.46 714.817Z" fill="#FFFFFF"/></g></g></g></g></svg>