<svg width="397" height="390" xmlns="http://www.w3.org/2000/svg" xmlns:xlink="http://www.w3.org/1999/xlink" xml:space="preserve" overflow="hidden"><defs><clipPath id="clip0"><rect x="2676" y="540" width="397" height="390"/></clipPath></defs><g clip-path="url(#clip0)" transform="translate(-2676 -540)"><path d="M2676 605.001C2676 569.102 2705.1 540 2741 540L3008 540C3043.9 540 3073 569.102 3073 605.001L3073 864.999C3073 900.898 3043.9 930 3008 930L2741 930C2705.1 930 2676 900.898 2676 864.999Z" fill="#F9C82B" fill-rule="evenodd"/><g><g><g><path d="M2758.13 794.437 2771.88 794.437 2771.88 808.187 2758.13 808.187 2758.13 794.437ZM2758.13 766.937 2771.88 766.937 2771.88 780.687 2758.13 780.687 2758.13 766.937ZM2758.13 739.437 2771.88 739.437 2771.88 753.187 2758.13 753.187 2758.13 739.437ZM2785.63 794.437 2799.38 794.437 2799.38 808.187 2785.63 808.187 2785.63 794.437ZM2785.63 766.937 2799.38 766.937 2799.38 780.687 2785.63 780.687 2785.63 766.937ZM2785.63 739.437 2799.38 739.437 2799.38 753.187 2785.63 753.187 2785.63 739.437ZM2737.5 842.562 2771.88 842.562 2771.88 821.937 2785.63 821.937 2785.63 842.562 2820 842.562 2820 718.812 2737.5 718.812 2737.5 842.562Z" fill="#FFFFFF"/><path d="M2854.38 794.437 2868.13 794.437 2868.13 808.187 2854.38 808.187 2854.38 794.437ZM2854.38 766.937 2868.13 766.937 2868.13 780.687 2854.38 780.687 2854.38 766.937ZM2881.88 794.437 2895.63 794.437 2895.63 808.187 2881.88 808.187 2881.88 794.437ZM2881.88 766.937 2895.63 766.937 2895.63 780.687 2881.88 780.687 2881.88 766.937ZM2833.75 842.562 2868.13 842.562 2868.13 821.937 2881.88 821.937 2881.88 842.562 2916.25 842.562 2916.25 746.312 2833.75 746.312 2833.75 842.562Z" fill="#FFFFFF"/><path d="M2991.88 674.125 2978.13 674.125 2978.13 660.375 2991.88 660.375 2991.88 674.125ZM2991.88 698.187 2978.13 698.187 2978.13 684.437 2991.88 684.437 2991.88 698.187ZM2991.88 725.687 2978.13 725.687 2978.13 711.937 2991.88 711.937 2991.88 725.687ZM2991.88 753.187 2978.13 753.187 2978.13 739.437 2991.88 739.437 2991.88 753.187ZM2991.88 780.687 2978.13 780.687 2978.13 766.937 2991.88 766.937 2991.88 780.687ZM2991.88 808.187 2978.13 808.187 2978.13 794.437 2991.88 794.437 2991.88 808.187ZM2964.38 674.125 2950.63 674.125 2950.63 660.375 2964.38 660.375 2964.38 674.125ZM2964.38 698.187 2950.63 698.187 2950.63 684.437 2964.38 684.437 2964.38 698.187ZM2964.38 725.687 2950.63 725.687 2950.63 711.937 2964.38 711.937 2964.38 725.687ZM2964.38 753.187 2950.63 753.187 2950.63 739.437 2964.38 739.437 2964.38 753.187ZM2964.38 780.687 2950.63 780.687 2950.63 766.937 2964.38 766.937 2964.38 780.687ZM2964.38 808.187 2950.63 808.187 2950.63 794.437 2964.38 794.437 2964.38 808.187ZM2930 636.312 2930 842.562 2964.38 842.562 2964.38 821.937 2978.13 821.937 2978.13 842.562 3012.5 842.562 3012.5 646.625 2930 636.312Z" fill="#FFFFFF"/><path d="M2833.75 677.562 2847.5 677.562 2847.5 691.312 2833.75 691.312 2833.75 677.562ZM2833.75 650.062 2847.5 650.062 2847.5 663.812 2833.75 663.812 2833.75 650.062ZM2820 663.812 2806.25 663.812 2806.25 650.062 2820 650.062 2820 663.812ZM2820 691.312 2806.25 691.312 2806.25 677.562 2820 677.562 2820 691.312ZM2833.75 732.562 2868.13 732.562 2868.13 629.437 2785.63 629.437 2785.63 705.062 2833.75 705.062 2833.75 732.562Z" fill="#FFFFFF"/></g></g></g></g></svg>