<svg width="396" height="390" xmlns="http://www.w3.org/2000/svg" xmlns:xlink="http://www.w3.org/1999/xlink" xml:space="preserve" overflow="hidden"><g transform="translate(-770 -542)"><path d="M770 607.001C770 571.102 799.102 542 835.001 542L1101 542C1136.9 542 1166 571.102 1166 607.001L1166 866.999C1166 902.898 1136.9 932 1101 932L835.001 932C799.102 932 770 902.898 770 866.999Z" fill="#4BA2D5" fill-rule="evenodd"/><g><g><g><path d="M874.312 706.25 874.312 651.562 925.875 651.562 952.828 706.25 952.828 706.25 874.703 706.25 874.312 706.25 874.312 706.25ZM1085.25 706.25 1038.77 706.25 1038.77 671.094C1038.77 666.797 1042.28 663.281 1046.58 663.281L1046.58 647.656C1033.69 647.656 1023.14 658.203 1023.14 671.094L1023.14 706.25 979 706.25C978.609 705.469 978.219 704.688 977.828 703.516L946.969 641.016C943.062 632.812 934.859 627.734 925.875 628.125L874.703 628.125C861.812 628.125 851.266 638.672 851.266 651.562L851.266 706.25 843.062 711.328C840.719 712.891 839.547 715.234 839.547 717.969L839.547 729.688C839.547 730.859 839.937 732.031 840.328 733.203 834.078 737.109 828.219 741.406 822.75 746.875 821.187 748.438 820.016 750.781 820.016 753.125 820.016 755.469 821.187 757.812 822.75 759.375 825.875 761.719 830.172 761.719 833.297 758.594 852.047 739.844 871.187 737.5 876.266 737.5L882.125 737.5C916.109 737.5 943.453 762.5 944.625 796.094L944.625 803.516C944.625 807.422 947.359 810.938 951.266 811.719 953.609 812.109 955.953 811.328 957.516 809.766 959.078 808.203 960.25 806.25 960.25 803.906L960.25 796.094 1029 796.094C1035.64 775 1055.17 760.938 1077.44 760.938 1082.12 760.938 1086.42 761.719 1091.11 762.891 1093.45 763.672 1096.19 762.891 1098.14 761.328 1100.09 759.766 1101.27 757.422 1101.27 755.078L1101.27 721.875C1101.27 717.578 1099.7 713.672 1096.58 710.938 1093.45 707.812 1089.55 706.25 1085.25 706.25Z" fill="#FFFFFF"/><path d="M882.125 825.391C866.891 825.391 854.781 813.281 854.781 798.047 854.781 782.812 866.891 770.703 882.125 770.703 897.359 770.703 909.469 782.812 909.469 798.047 909.469 813.281 897.359 825.391 882.125 825.391L882.125 825.391ZM882.125 751.172C857.125 751.172 836.422 770.703 835.25 795.703L835.25 796.094C835.25 796.875 835.25 797.266 835.25 798.047 835.25 823.828 856.344 844.922 882.125 844.922 907.906 844.922 929 823.828 929 798.047 929 797.266 929 796.875 929 796.094 928.219 771.094 907.516 751.172 882.125 751.172Z" fill="#FFFFFF"/><path d="M1077.44 831.25C1066.5 831.25 1057.91 822.656 1057.91 811.719 1057.91 800.781 1066.5 792.188 1077.44 792.188 1088.38 792.188 1096.97 800.781 1096.97 811.719 1096.97 822.656 1088.38 831.25 1077.44 831.25ZM1100.88 785.547C1088.38 774.609 1070.02 773.438 1056.73 783.203 1043.45 792.969 1038.77 810.938 1045.41 825.781 1052.05 841.016 1068.84 849.219 1084.86 845.703 1101.27 842.188 1112.59 827.734 1112.59 811.328 1112.59 801.562 1108.69 792.188 1100.88 785.547L1100.88 785.547Z" fill="#FFFFFF"/></g></g></g></g></svg>