<svg width="96" height="96" xmlns="http://www.w3.org/2000/svg" xmlns:xlink="http://www.w3.org/1999/xlink" xml:space="preserve" overflow="hidden"><g transform="translate(-106 -495)"><path d="M184.5 512.5 183.5 503.5 172.5 514.5 173.1 519.7 157.1 535.7C155.7 535 154.1 534.5 152.4 534.5 146.9 534.5 142.4 539 142.4 544.5 142.4 550 146.9 554.5 152.4 554.5 157.9 554.5 162.4 550 162.4 544.5 162.4 542.8 162 541.3 161.3 539.9L177.3 523.9 182.5 524.5 193.5 513.5 184.5 512.5Z" fill="#009169"/><path d="M185.3 527.3 184 528.7 182.1 528.5 180 528.2C182.8 533 184.5 538.5 184.5 544.5 184.5 562.1 170.1 576.5 152.5 576.5 134.9 576.5 120.5 562.1 120.5 544.5 120.5 526.9 134.9 512.5 152.5 512.5 158.4 512.5 164 514.1 168.8 517L168.6 515 168.3 513 169.7 511.6 170.4 510.9C165 508.1 159 506.5 152.5 506.5 131.5 506.5 114.5 523.5 114.5 544.5 114.5 565.5 131.5 582.5 152.5 582.5 173.5 582.5 190.5 565.5 190.5 544.5 190.5 538 188.9 532 186 526.7L185.3 527.3Z" fill="#009169"/><path d="M169.2 537.7C170.1 539.8 170.5 542.1 170.5 544.5 170.5 554.4 162.4 562.5 152.5 562.5 142.6 562.5 134.5 554.4 134.5 544.5 134.5 534.6 142.6 526.5 152.5 526.5 154.9 526.5 157.2 527 159.3 527.8L163.8 523.3C160.4 521.5 156.6 520.5 152.5 520.5 139.3 520.5 128.5 531.3 128.5 544.5 128.5 557.7 139.3 568.5 152.5 568.5 165.7 568.5 176.5 557.7 176.5 544.5 176.5 540.4 175.5 536.6 173.7 533.2L169.2 537.7Z" fill="#009169"/></g></svg>