<svg width="396" height="390" xmlns="http://www.w3.org/2000/svg" xmlns:xlink="http://www.w3.org/1999/xlink" xml:space="preserve" overflow="hidden"><defs><clipPath id="clip0"><rect x="770" y="1109" width="396" height="390"/></clipPath></defs><g clip-path="url(#clip0)" transform="translate(-770 -1109)"><path d="M770 1174C770 1138.1 799.102 1109 835.001 1109L1101 1109C1136.9 1109 1166 1138.1 1166 1174L1166 1434C1166 1469.9 1136.9 1499 1101 1499L835.001 1499C799.102 1499 770 1469.9 770 1434Z" fill="#6FA157" fill-rule="evenodd"/><path d="M893 1198C893 1211.26 882.255 1222 869 1222 855.745 1222 845 1211.26 845 1198 845 1184.74 855.745 1174 869 1174 882.255 1174 893 1184.74 893 1198Z" fill="#FFFFFF" fill-rule="evenodd"/><path d="M934.649 1325.7 915.431 1253.34C914.777 1251.16 913.589 1249.18 911.975 1247.57 905.359 1240.71 897.195 1235.53 888.159 1232.44 882.227 1230.08 875.883 1228.91 869.494 1229 863.141 1228.97 856.828 1230.02 850.829 1232.1 841.741 1235.09 833.545 1240.29 826.979 1247.22 825.438 1249.02 824.264 1251.1 823.523 1253.34L804.339 1325.7C802.893 1331.2 806.203 1336.83 811.736 1338.28 812.592 1338.51 813.476 1338.63 814.363 1338.62 819.13 1338.7 823.337 1335.54 824.56 1330.96L841.843 1265.3 841.843 1449 862.581 1449 862.581 1342.44 876.407 1342.44 876.407 1449 897.146 1449 897.146 1265.3 914.429 1330.96C915.667 1335.6 919.967 1338.78 924.798 1338.62 925.685 1338.63 926.569 1338.51 927.425 1338.28 932.889 1336.76 936.108 1331.15 934.649 1325.7Z" fill="#FFFFFF" fill-rule="evenodd"/><path d="M1106 1198C1106 1211.26 1095.03 1222 1081.5 1222 1067.97 1222 1057 1211.26 1057 1198 1057 1184.74 1067.97 1174 1081.5 1174 1095.03 1174 1106 1184.74 1106 1198Z" fill="#FFFFFF" fill-rule="evenodd"/><path d="M1146.65 1325.7 1127.43 1253.34C1126.74 1251.18 1125.56 1249.2 1123.97 1247.57 1117.36 1240.71 1109.19 1235.53 1100.16 1232.44 1094.23 1230.08 1087.88 1228.91 1081.49 1229 1075.14 1228.97 1068.83 1230.02 1062.83 1232.1 1053.74 1235.09 1045.55 1240.29 1038.98 1247.22 1037.44 1249.02 1036.26 1251.1 1035.52 1253.34L1016.34 1325.7C1014.89 1331.2 1018.2 1336.83 1023.74 1338.28 1024.59 1338.51 1025.48 1338.63 1026.36 1338.62 1031.13 1338.7 1035.34 1335.54 1036.56 1330.96L1053.84 1265.3 1053.84 1286.34 1032.27 1366.5 1053.84 1366.5 1053.84 1449 1074.58 1449 1074.58 1366.5 1088.41 1366.5 1088.41 1449 1109.15 1449 1109.15 1366.5 1126.98 1366.5 1109.15 1300.19 1109.15 1265.3 1126.43 1330.96C1127.67 1335.6 1131.97 1338.78 1136.8 1338.62 1137.69 1338.63 1138.57 1338.51 1139.43 1338.28 1144.89 1336.76 1148.11 1331.15 1146.65 1325.7Z" fill="#FFFFFF" fill-rule="evenodd"/><path d="M945 1276 1001.67 1276" stroke="#FFFFFF" stroke-width="13.75" stroke-miterlimit="8" fill="none" fill-rule="evenodd"/><path d="M945 1300 1001.67 1300" stroke="#FFFFFF" stroke-width="13.75" stroke-miterlimit="8" fill="none" fill-rule="evenodd"/></g></svg>