<svg width="396" height="400" xmlns="http://www.w3.org/2000/svg" xmlns:xlink="http://www.w3.org/1999/xlink" xml:space="preserve" overflow="hidden"><g transform="translate(-3322 -530)"><path d="M3322 605.001C3322 569.102 3351.1 540 3387 540L3653 540C3688.9 540 3718 569.102 3718 605.001L3718 864.999C3718 900.898 3688.9 930 3653 930L3387 930C3351.1 930 3322 900.898 3322 864.999Z" fill="#F6A43B" fill-rule="evenodd"/><path d="M3687 760.73C3687 753.178 3680.82 747 3673.27 747 3670.53 747 3668.13 747.686 3666.07 749.059L3607.38 782.697C3608.07 786.473 3608.07 790.249 3607.38 794.368 3604.64 807.068 3592.63 815.649 3579.58 815.649L3518.84 815.649 3518.84 801.919 3580.61 801.919C3588.16 801.919 3594.34 795.741 3594.34 788.189 3594.34 780.638 3588.16 774.459 3580.61 774.459 3580.61 774.459 3498.94 774.459 3498.25 774.459 3492.42 774.459 3486.93 776.176 3482.12 778.921L3385 825.946 3433.05 874C3455.35 851.689 3484.18 843.108 3515.41 843.108L3579.58 843.108C3582.67 843.108 3585.42 842.078 3587.82 840.362L3682.2 771.37C3684.94 768.624 3687 764.849 3687 760.73Z" fill="#FFFFFF" fill-rule="evenodd"/><g><g><g><path d="M3443.92 685.09 3443.92 721.896C3443.92 739.198 3483.24 756.5 3532 756.5 3580.76 756.5 3620.08 739.198 3620.08 721.896L3620.08 685.09 3532 716.233 3443.92 685.09Z" fill="#FFFFFF"/><path d="M3532 702.706 3669.16 654.575 3532 605.5 3394.84 654.575 3412.46 660.867 3412.46 718.75C3412.46 722.21 3415.29 725.042 3418.75 725.042 3422.21 725.042 3425.04 722.21 3425.04 718.75L3425.04 665.271 3532 702.706Z" fill="#FFFFFF"/></g></g></g></g></svg>