<svg width="397" height="390" xmlns="http://www.w3.org/2000/svg" xmlns:xlink="http://www.w3.org/1999/xlink" xml:space="preserve" overflow="hidden"><defs><clipPath id="clip0"><rect x="2685" y="1095" width="397" height="390"/></clipPath></defs><g clip-path="url(#clip0)" transform="translate(-2685 -1095)"><path d="M2685 1160C2685 1124.1 2714.1 1095 2750 1095L3017 1095C3052.9 1095 3082 1124.1 3082 1160L3082 1420C3082 1455.9 3052.9 1485 3017 1485L2750 1485C2714.1 1485 2685 1455.9 2685 1420Z" fill="#8F5294" fill-rule="evenodd"/><path d="M3035 1333.84C3035 1326.23 3028.8 1320 3021.23 1320 3018.47 1320 3016.06 1320.69 3014 1322.08L2955.12 1355.98C2955.81 1359.78 2955.81 1363.59 2955.12 1367.74 2952.36 1380.54 2940.31 1389.19 2927.23 1389.19L2866.28 1389.19 2866.28 1375.35 2928.26 1375.35C2935.84 1375.35 2942.03 1369.12 2942.03 1361.51 2942.03 1353.9 2935.84 1347.68 2928.26 1347.68 2928.26 1347.68 2846.31 1347.68 2845.63 1347.68 2839.77 1347.68 2834.26 1349.41 2829.44 1352.17L2732 1399.57 2780.2 1448C2802.59 1425.51 2831.51 1416.86 2862.84 1416.86L2927.23 1416.86C2930.33 1416.86 2933.08 1415.83 2935.49 1414.1L3030.18 1344.56C3032.93 1341.79 3035 1337.99 3035 1333.84Z" fill="#FFFFFF" fill-rule="evenodd"/><g><g><g><path d="M2843.69 1260.58C2833.7 1263.95 2824.34 1268.95 2815.99 1275.38 2810.31 1279.81 2806.95 1286.57 2806.83 1293.76L2806.83 1336.4 2808.99 1337.85C2814.04 1341.21 2822.75 1343.85 2833.53 1345.78L2833.53 1330.17 2879.65 1330.17 2879.65 1349.7C2881.49 1349.72 2883.33 1349.74 2885.17 1349.74 2886.57 1349.74 2887.96 1349.72 2889.35 1349.71L2889.35 1330.17 2935.47 1330.17 2935.47 1345.96C2946.66 1343.98 2955.51 1341.22 2960.22 1337.69L2962.17 1336.23 2962.17 1293.66C2962.04 1286.53 2958.71 1279.84 2953.11 1275.44 2944.76 1269 2935.41 1263.99 2925.42 1260.61L2910.29 1254.55C2909.38 1254.18 2908.77 1253.29 2908.77 1252.31L2908.77 1246.36C2917.97 1239.01 2923.33 1227.87 2923.33 1216.09L2923.33 1199.1 2925.76 1199.1C2928.44 1199.1 2930.61 1196.93 2930.61 1194.25 2930.61 1191.57 2928.44 1189.4 2925.76 1189.4L2923.33 1189.4C2922.49 1175.99 2914.78 1163.98 2902.95 1157.63L2899.06 1172.99C2898.79 1174.1 2897.78 1174.87 2896.64 1174.83L2896.05 1174.83C2894.74 1174.56 2893.9 1173.27 2894.17 1171.96 2894.17 1171.96 2894.17 1171.96 2894.17 1171.96 2894.17 1171.91 2894.2 1171.87 2894.21 1171.82L2898.82 1153.65C2898.01 1150.42 2895.12 1148.15 2891.8 1148.14L2877.23 1148.14C2873.9 1148.15 2871 1150.42 2870.19 1153.65L2874.81 1171.82C2875.16 1173.12 2874.4 1174.45 2873.11 1174.8L2872.96 1174.83 2872.38 1174.83C2871.24 1174.87 2870.23 1174.1 2869.95 1172.99L2866.19 1157.63C2854.36 1163.98 2846.65 1175.99 2845.8 1189.4L2843.25 1189.4C2840.57 1189.4 2838.4 1191.57 2838.4 1194.25 2838.4 1196.93 2840.57 1199.1 2843.25 1199.1L2845.68 1199.1 2845.68 1216.09C2845.68 1227.86 2851.04 1238.99 2860.23 1246.35L2860.23 1252.31C2860.23 1253.29 2859.64 1254.17 2858.73 1254.55ZM2855.37 1216.09 2855.37 1199.1 2913.62 1199.1 2913.62 1216.09C2913.62 1232.18 2900.58 1245.22 2884.5 1245.22 2868.41 1245.22 2855.37 1232.18 2855.37 1216.09ZM2879.65 1320.46 2834.3 1320.46 2841.92 1271.86 2862.4 1263.53C2862.54 1263.47 2862.67 1263.39 2862.81 1263.32L2879.66 1303.47ZM2884.5 1264.64C2877.98 1264.7 2871.48 1263.77 2865.24 1261.87 2868.2 1259.58 2869.94 1256.05 2869.94 1252.31L2869.94 1252.06C2879.27 1255.88 2889.74 1255.88 2899.07 1252.06L2899.07 1252.31C2899.07 1256.07 2900.82 1259.61 2903.81 1261.9 2897.55 1263.78 2891.04 1264.7 2884.5 1264.64ZM2889.35 1320.46 2889.35 1303.47 2906.19 1263.34C2906.34 1263.4 2906.47 1263.49 2906.62 1263.55L2927.25 1271.8 2934.74 1320.46Z" fill="#FFFFFF"/></g></g></g></g></svg>