<svg width="397" height="390" xmlns="http://www.w3.org/2000/svg" xmlns:xlink="http://www.w3.org/1999/xlink" xml:space="preserve" overflow="hidden"><g transform="translate(-1413 -542)"><path d="M1413 607.001C1413 571.102 1442.1 542 1478 542L1745 542C1780.9 542 1810 571.102 1810 607.001L1810 866.999C1810 902.898 1780.9 932 1745 932L1478 932C1442.1 932 1413 902.898 1413 866.999Z" fill="#29BFB7" fill-rule="evenodd"/><path d="M1519.5 680.5C1519.5 630.794 1560.91 590.5 1612 590.5 1663.09 590.5 1704.5 630.794 1704.5 680.5 1704.5 730.206 1663.09 770.5 1612 770.5 1560.91 770.5 1519.5 730.206 1519.5 680.5Z" stroke="#FFFFFF" stroke-width="6.875" stroke-miterlimit="8" fill="#FFFFFF" fill-rule="evenodd"/><g><g><g><path d="M87.8398 69.7917C83.1219 65.7717 76.9942 63.8873 71.1875 62.0727L71.1875 28.3215C76.8253 28.8572 82.0939 31.363 86.0671 35.3983L92.7671 28.9775C87.0333 23.1447 79.3499 19.631 71.1875 19.109L71.1875 6.97917 62.8125 6.97917 62.8125 19.6394C59.9446 20.1976 57.1777 21.1858 54.605 22.5706 44.0246 28.3354 38.6227 41.875 42.9638 53.279 46.3277 62.0727 54.4375 65.995 62.8125 68.9402L62.8125 105.483C56.3219 104.688 50.934 100.961 46.4673 96.3125L39.7673 102.719C42.9575 106.339 46.7613 109.368 51.0038 111.667 54.7118 113.431 58.7167 114.486 62.8125 114.779L62.8125 127.021 71.1875 127.021 71.1875 114.458C80.7909 112.853 89.6125 106.949 93.4092 97.7084 97.2059 88.468 95.824 76.6173 87.8398 69.7917ZM55.8334 55.4565C48.1563 48.9798 50.0267 36.4452 58.1644 31.2527 59.6067 30.3277 61.1712 29.6088 62.8125 29.1171L62.8125 59.3927C60.2854 58.4736 57.9274 57.1436 55.8334 55.4565ZM81.084 99.8719C78.3596 102.535 74.9224 104.353 71.1875 105.106L71.1875 71.7598C76.7709 73.6721 83.1777 76.1009 85.453 82.0471 87.7282 87.9934 85.439 95.4332 81.084 99.8719Z" fill="#29BFB7" transform="matrix(1.01492 0 0 1 1542 613)"/></g></g></g><path d="M1519.5 826.5 1704.22 826.5" stroke="#FFFFFF" stroke-width="20.625" stroke-linecap="round" stroke-linejoin="round" stroke-miterlimit="10" fill="none" fill-rule="evenodd"/><path d="M1519.5 860.5 1704.22 860.5" stroke="#FFFFFF" stroke-width="20.625" stroke-linecap="round" stroke-linejoin="round" stroke-miterlimit="10" fill="none" fill-rule="evenodd"/><path d="M1519.5 793.5 1704.22 793.5" stroke="#FFFFFF" stroke-width="20.625" stroke-linecap="round" stroke-linejoin="round" stroke-miterlimit="10" fill="none" fill-rule="evenodd"/></g></svg>