<?xml version="1.0" encoding="utf-8"?>
<!-- Generator: Adobe Illustrator 27.0.1, SVG Export Plug-In . SVG Version: 6.00 Build 0)  -->
<svg version="1.1" id="Capa_2" xmlns="http://www.w3.org/2000/svg" xmlns:xlink="http://www.w3.org/1999/xlink" x="0px" y="0px"
	 viewBox="0 0 669.1 244.6" style="enable-background:new 0 0 669.1 244.6;" xml:space="preserve">
<style type="text/css">
	.st0{fill:#28348A;}
	.st1{fill-rule:evenodd;clip-rule:evenodd;fill:#28348A;}
	.st2{fill:#009A3D;}
</style>
<g>
	
		<rect x="180.7" y="120.2" transform="matrix(6.123234e-17 -1 1 6.123234e-17 142.8034 385.692)" class="st0" width="167.1" height="2.4"/>
	<g>
		<path class="st0" d="M351.6,112.8c0,5.4-3.6,8.2-10.7,8.2h-26.8c-7.1,0-10.7-2.8-10.7-8.2V63.4c0-5.6,3.5-8.3,10.7-8.3h26.8
			c7.1,0,10.7,2.8,10.7,8.3v19.5h-21.4V71.5h-5.2v33h5.2V89h21.4V112.8"/>
		<path class="st1" d="M405.2,112.8c0,5.4-3.6,8.2-10.7,8.2h-26.8c-7.1,0-10.7-2.8-10.7-8.2V63.4c0-5.6,3.6-8.3,10.7-8.3h26.8
			c7.1,0,10.7,2.8,10.7,8.3V112.8 M383.7,71.5h-5.2v33h5.2V71.5z"/>
		<path class="st2" d="M448.3,141.5c-2.4,0-4.8-0.7-7-2.2c-2.5-1.7-3.8-3.7-3.8-6V121h-0.1V71.5h-5.2V114h-21.5V55h21.5v4.2
			c3.6-2.8,8.9-4.2,16-4.2c7.1,0,10.7,2.8,10.7,8.3v61.8h26.9v16.4H448.3"/>
		<polygon class="st0" points="485.7,79.7 500.7,79.7 500.7,96.3 485.7,96.3 485.7,104.6 500.7,104.6 500.7,121 464.3,121 464.3,55 
			500.7,55 500.7,71.5 485.7,71.5 		"/>
		<polygon class="st0" points="548.5,121 516.4,121 505.7,55 527,55 532.5,92.1 537.8,55 559.3,55 		"/>
		<path class="st1" d="M571.9,121c-7.1,0-10.7-2.8-10.7-8.2V87.9c0-5.4,3.6-8.1,10.7-8.2h16v-8.2h-5.2v4h-21.5V63.4
			c0-5.6,3.6-8.3,10.7-8.3h26.8c7.1,0,10.6,2.8,10.6,8.3V121H571.9 M587.9,96.3h-5.2v8.3h5.2V96.3z"/>
		<polygon class="st0" points="614.9,121 614.9,55 636.4,55 636.4,104.6 650.3,104.6 650.3,121 		"/>
		<path class="st0" d="M368.2,153.1v10.7c0,1.3-0.2,2.2-0.5,2.7c-0.4,0.5-1,0.7-1.9,0.7h-0.3v-1.3c0.5,0,0.8-0.1,1-0.3
			c0.2-0.2,0.3-0.7,0.3-1.6v-10.9H368.2z M317.6,158.4c0-1.6,0.5-2.9,1.6-4c1.1-1.1,2.3-1.7,3.8-1.7c1.6,0,2.9,0.5,4,1.6
			c1.1,1.1,1.6,2.4,1.6,3.9c0,1.6-0.5,2.9-1.6,4.1c-1,1.1-2.3,1.7-3.8,1.7c-1.5,0-2.8-0.6-3.9-1.6
			C318.1,161.3,317.6,160,317.6,158.4 M363.8,158.9h-9.6c0.1,1.2,0.5,2.1,1.3,2.8c0.8,0.7,1.7,1.1,2.8,1.1c0.8,0,1.5-0.2,2.1-0.6
			c0.6-0.4,1.2-1,1.5-1.7h1.5c-0.5,1.2-1.2,2.1-2.1,2.7c-0.9,0.6-1.9,0.9-3.1,0.9c-1.5,0-2.9-0.6-3.9-1.7c-1.1-1.1-1.6-2.4-1.6-4
			c0-1.6,0.5-3,1.6-4c1.1-1.1,2.4-1.6,4-1.6c1.6,0,2.9,0.6,3.9,1.6C363.3,155.6,363.8,157,363.8,158.9L363.8,158.9z M371.3,158.4
			c0-1.6,0.5-2.9,1.6-4c1.1-1.1,2.3-1.7,3.8-1.7c1.5,0,2.8,0.5,3.9,1.6c1.1,1.1,1.6,2.4,1.6,3.9c0,1.6-0.5,2.9-1.6,4.1
			c-1,1.1-2.4,1.7-3.9,1.7c-1.6,0-2.8-0.6-3.9-1.6C371.8,161.3,371.3,160,371.3,158.4 M435.3,156.4c-0.4-0.8-0.9-1.3-1.5-1.7
			c-0.6-0.4-1.3-0.6-2.2-0.6c-1.1,0-2.1,0.4-2.8,1.2c-0.8,0.9-1.1,1.9-1.1,3.1c0,1.2,0.4,2.2,1.1,3.1c0.8,0.8,1.7,1.2,2.8,1.2
			c0.8,0,1.6-0.2,2.2-0.6c0.6-0.4,1.1-1,1.4-1.7h1.5c-0.4,1.2-1.1,2-1.9,2.7c-0.9,0.6-1.9,0.9-3.1,0.9c-1.5,0-2.8-0.6-3.9-1.6
			c-1-1.1-1.6-2.4-1.6-4c0-1.6,0.6-2.9,1.6-4c1.1-1.1,2.4-1.6,3.9-1.6c1.1,0,2.2,0.3,3.1,0.9c0.9,0.6,1.5,1.5,2,2.6H435.3z
			 M444.7,158.4c0-1.6,0.5-2.9,1.6-4c1.1-1.1,2.3-1.7,3.8-1.7c1.6,0,2.9,0.5,4,1.6c1.1,1.1,1.6,2.4,1.6,3.9c0,1.6-0.5,2.9-1.6,4.1
			c-1,1.1-2.3,1.7-3.9,1.7c-1.5,0-2.8-0.6-3.9-1.6C445.2,161.3,444.7,160,444.7,158.4 M527.5,158.9h-9.6c0.1,1.2,0.5,2.1,1.3,2.8
			c0.8,0.7,1.7,1.1,2.8,1.1c0.8,0,1.5-0.2,2.2-0.6c0.6-0.4,1.1-1,1.5-1.7h1.6c-0.5,1.2-1.2,2.1-2.1,2.7c-0.9,0.6-1.9,0.9-3.1,0.9
			c-1.5,0-2.9-0.6-3.9-1.7c-1.1-1.1-1.6-2.4-1.6-4c0-1.6,0.5-3,1.6-4c1-1.1,2.4-1.6,4-1.6c1.6,0,2.9,0.6,3.9,1.6
			C527,155.6,527.5,157,527.5,158.9L527.5,158.9z M619.6,156.4c-0.4-0.8-0.9-1.3-1.5-1.7c-0.6-0.4-1.3-0.6-2.2-0.6
			c-1.1,0-2,0.4-2.8,1.2c-0.8,0.9-1.2,1.9-1.2,3.1c0,1.2,0.4,2.2,1.2,3.1c0.7,0.8,1.7,1.2,2.9,1.2c0.8,0,1.5-0.2,2.2-0.6
			c0.6-0.4,1.1-1,1.4-1.7h1.5c-0.4,1.2-1.1,2-1.9,2.7c-0.9,0.6-1.9,0.9-3.1,0.9c-1.5,0-2.8-0.6-3.9-1.6c-1-1.1-1.6-2.4-1.6-4
			c0-1.6,0.5-2.9,1.6-4c1.1-1.1,2.4-1.6,3.9-1.6c1.1,0,2.2,0.3,3,0.9c0.9,0.6,1.6,1.5,2,2.6H619.6z M629,158.4c0-1.6,0.5-2.9,1.6-4
			c1.1-1.1,2.4-1.7,3.8-1.7c1.5,0,2.9,0.5,3.9,1.6c1.1,1.1,1.6,2.4,1.6,3.9c0,1.6-0.5,2.9-1.6,4.1c-1,1.1-2.3,1.7-3.8,1.7
			c-1.6,0-2.8-0.6-3.9-1.6C629.6,161.3,629,160,629,158.4 M313.3,153.3c-0.6-0.9-1.4-1.5-2.1-2c-0.8-0.4-1.6-0.6-2.7-0.6
			c-1.6,0-2.9,0.6-4,1.8c-1.1,1.2-1.7,2.5-1.7,4.1c0,1.7,0.6,3.1,1.7,4.3c1.1,1.2,2.4,1.7,4,1.7c1,0,1.9-0.2,2.6-0.6
			c0.8-0.4,1.5-1,2.1-1.8h1.6c-0.6,1.2-1.5,2.1-2.6,2.8c-1.1,0.7-2.3,1-3.6,1c-2.1,0-3.8-0.7-5.2-2.1c-1.4-1.4-2.1-3.2-2.1-5.3
			c0-1,0.2-1.9,0.6-2.8c0.4-0.9,0.9-1.7,1.6-2.4c0.7-0.7,1.4-1.2,2.3-1.5c0.8-0.3,1.7-0.5,2.7-0.5c1.4,0,2.6,0.3,3.8,1
			c1.1,0.7,2,1.6,2.7,2.9H313.3z M343.5,160.4h1.4v0.1c0,0.7,0.2,1.2,0.6,1.6c0.4,0.4,0.9,0.7,1.4,0.7c0.5,0,1-0.1,1.3-0.5
			c0.3-0.4,0.5-0.8,0.5-1.3c0-0.5-0.1-0.9-0.4-1.2c-0.3-0.3-0.8-0.6-1.5-0.9c-1.2-0.4-2-0.8-2.3-1.3c-0.3-0.4-0.5-1.1-0.5-1.8
			c0-0.8,0.3-1.5,0.9-2.1c0.6-0.6,1.3-0.9,2.2-0.9c0.9,0,1.6,0.3,2.2,0.8c0.5,0.5,0.8,1.2,0.9,2.2h-1.5c0-0.5-0.2-0.9-0.5-1.2
			c-0.3-0.3-0.7-0.4-1.2-0.4c-0.5,0-0.8,0.2-1.1,0.5c-0.3,0.3-0.4,0.7-0.4,1.1c0,0.3,0.1,0.6,0.2,0.8c0.1,0.2,0.3,0.4,0.6,0.6
			c0.3,0.1,0.6,0.3,1.1,0.5c0.5,0.2,0.8,0.3,1,0.3c0.7,0.3,1.2,0.6,1.5,1.1c0.3,0.5,0.5,1.1,0.5,1.8c0,0.9-0.3,1.7-0.9,2.3
			c-0.7,0.6-1.5,0.9-2.5,0.9c-1,0-1.8-0.3-2.4-1C343.8,162.4,343.5,161.5,343.5,160.4 M421.8,162.1c-0.4,0.6-1,1.1-1.7,1.4
			c-0.7,0.4-1.5,0.5-2.4,0.5c-1.6,0-2.9-0.5-3.9-1.6c-1.1-1.1-1.6-2.4-1.6-4c0-1.6,0.5-2.9,1.6-4c1.1-1.1,2.4-1.6,4-1.6
			c0.8,0,1.6,0.1,2.2,0.5c0.7,0.3,1.3,0.8,1.7,1.4v-1.7h1.3v10.6h-1.3V162.1z M480.3,162.1c-0.4,0.6-1,1.1-1.7,1.4
			c-0.7,0.4-1.5,0.5-2.4,0.5c-1.6,0-2.9-0.5-3.9-1.6c-1.1-1.1-1.6-2.4-1.6-4c0-1.6,0.6-2.9,1.6-4c1.1-1.1,2.4-1.6,4-1.6
			c0.8,0,1.6,0.1,2.3,0.5c0.7,0.3,1.2,0.8,1.7,1.4v-1.7h1.3v10.6h-1.3V162.1z M512.1,154.8v-2.4v-2.8h1.4v14.1h-1.4v-1.6
			c-0.5,0.6-1.1,1.1-1.8,1.4c-0.7,0.3-1.5,0.5-2.3,0.5c-1.5,0-2.8-0.5-3.9-1.6c-1.1-1.1-1.6-2.4-1.6-4c0-1.6,0.5-2.9,1.6-4
			c1-1.1,2.4-1.6,3.9-1.6c0.9,0,1.6,0.1,2.3,0.5C511,153.7,511.6,154.2,512.1,154.8 M574.7,162.1c-0.4,0.6-1,1.1-1.7,1.4
			c-0.7,0.4-1.5,0.5-2.4,0.5c-1.6,0-2.9-0.5-3.9-1.6c-1.1-1.1-1.6-2.4-1.6-4c0-1.6,0.5-2.9,1.6-4c1.1-1.1,2.4-1.6,4-1.6
			c0.8,0,1.6,0.1,2.3,0.5c0.7,0.3,1.2,0.8,1.7,1.4v-1.7h1.3v10.6h-1.3V162.1z M584.6,153.1h1.3v5.7c0,1.4,0.2,2.5,0.7,3.1
			c0.5,0.6,1.2,0.9,2.3,0.9c0.6,0,1.2-0.1,1.6-0.4c0.5-0.2,0.8-0.6,1.1-1.1c0.2-0.3,0.3-0.6,0.3-1c0.1-0.4,0.1-1,0.1-2v-5.2h1.4
			v10.6h-1.4v-1.1c-0.4,0.5-0.9,0.8-1.4,1.1c-0.5,0.2-1.1,0.3-1.8,0.3c-1.6,0-2.7-0.4-3.3-1.2c-0.7-0.8-1-2.2-1-4.1V153.1z
			 M606.2,162.1c-0.4,0.6-1,1.1-1.7,1.4c-0.7,0.4-1.5,0.5-2.3,0.5c-1.5,0-2.9-0.5-3.9-1.6c-1-1.1-1.6-2.4-1.6-4c0-1.6,0.5-2.9,1.6-4
			c1.1-1.1,2.4-1.6,4-1.6c0.8,0,1.6,0.1,2.3,0.5c0.7,0.3,1.2,0.8,1.7,1.4v-1.7h1.3v10.6h-1.3V162.1z M331.6,153.1h1.3v1.2
			c0.4-0.5,0.9-0.9,1.5-1.1c0.5-0.2,1.2-0.3,1.9-0.3c0.8,0,1.5,0.1,2.1,0.5c0.6,0.3,1.1,0.7,1.5,1.2c0.3,0.4,0.4,0.8,0.5,1.4
			c0.1,0.5,0.2,1.3,0.2,2.3v5.6h-1.4v-6c0-1.3-0.2-2.2-0.7-2.7c-0.5-0.6-1.3-0.9-2.3-0.9c-0.6,0-1.2,0.1-1.6,0.4
			c-0.5,0.2-0.8,0.6-1.1,1.1c-0.2,0.3-0.3,0.6-0.3,1c-0.1,0.4-0.1,1-0.1,1.9v5.2h-1.3V153.1z M407.7,162.1l-0.2-12.4h1.4v14.1h-1.7
			l-7.7-12.4l0.1,12.4h-1.4v-14.1h1.7L407.7,162.1z M440.3,153.1h1.4v10.6h-1.4V153.1z M458.8,153.1h1.3v1.2
			c0.4-0.5,0.9-0.9,1.5-1.1c0.5-0.2,1.2-0.3,1.9-0.3c0.8,0,1.5,0.1,2.1,0.5c0.6,0.3,1.1,0.7,1.5,1.2c0.3,0.4,0.4,0.8,0.5,1.4
			c0.1,0.5,0.1,1.3,0.1,2.3v5.6h-1.3v-6c0-1.3-0.2-2.2-0.7-2.7c-0.5-0.6-1.3-0.9-2.3-0.9c-0.6,0-1.2,0.1-1.6,0.4
			c-0.5,0.2-0.8,0.6-1.1,1.1c-0.2,0.3-0.3,0.6-0.4,1c-0.1,0.4-0.1,1-0.1,1.9v5.2h-1.3V153.1z M485.2,149.6h1.4v14.1h-1.4V149.6z
			 M545,156h5.9v1.4H545v5h5.9v1.4h-7.3v-14.1h7.3v1.4H545V156z M558.9,163.8h-1.2l-4.2-10.6h1.4l3.4,8.6l3.4-8.6h1.5L558.9,163.8z
			 M579.6,149.6h1.4v14.1h-1.4V149.6z M624.6,153.1h1.4v10.6h-1.4V153.1z M643.1,153.1h1.3v1.2c0.4-0.5,0.9-0.9,1.5-1.1
			c0.5-0.2,1.2-0.3,1.9-0.3c0.8,0,1.5,0.1,2.1,0.5c0.6,0.3,1.1,0.7,1.5,1.2c0.2,0.4,0.4,0.8,0.5,1.4c0.1,0.5,0.2,1.3,0.2,2.3v5.6
			h-1.4v-6c0-1.3-0.2-2.2-0.7-2.7c-0.5-0.6-1.2-0.9-2.3-0.9c-0.6,0-1.2,0.1-1.6,0.4c-0.5,0.2-0.8,0.6-1.1,1.1
			c-0.2,0.3-0.3,0.6-0.4,1c0,0.4-0.1,1-0.1,1.9v5.2h-1.3V153.1z M421.8,158.4c0-1.1-0.4-2.1-1.2-3c-0.8-0.8-1.7-1.3-2.8-1.3
			c-1.1,0-2.1,0.4-2.9,1.3c-0.8,0.9-1.2,1.9-1.2,3.1c0,1.2,0.4,2.2,1.2,3c0.8,0.8,1.8,1.2,2.9,1.2c1.1,0,2-0.4,2.8-1.3
			C421.4,160.6,421.8,159.6,421.8,158.4 M480.3,158.4c0-1.1-0.4-2.1-1.2-3c-0.8-0.8-1.7-1.3-2.8-1.3c-1.1,0-2.1,0.4-2.9,1.3
			c-0.8,0.9-1.2,1.9-1.2,3.1c0,1.2,0.4,2.2,1.2,3c0.8,0.8,1.8,1.2,2.9,1.2c1.1,0,2-0.4,2.8-1.3C479.9,160.6,480.3,159.6,480.3,158.4
			 M512.1,158.5c0-1.2-0.4-2.3-1.2-3.1c-0.8-0.9-1.8-1.3-2.8-1.3c-1.1,0-2.1,0.4-2.9,1.2c-0.8,0.8-1.2,1.8-1.2,3
			c0,1.2,0.4,2.3,1.2,3.1c0.8,0.9,1.8,1.3,2.9,1.3c1,0,2-0.4,2.8-1.3C511.7,160.6,512.1,159.7,512.1,158.5 M574.7,158.4
			c0-1.1-0.4-2.1-1.2-3c-0.8-0.8-1.7-1.3-2.8-1.3c-1.1,0-2.1,0.4-2.9,1.3c-0.8,0.9-1.2,1.9-1.2,3.1c0,1.2,0.4,2.2,1.2,3
			c0.8,0.8,1.8,1.2,2.9,1.2c1.1,0,2-0.4,2.8-1.3C574.3,160.6,574.7,159.6,574.7,158.4 M606.2,158.4c0-1.1-0.4-2.1-1.2-3
			c-0.8-0.8-1.7-1.3-2.8-1.3c-1.1,0-2.1,0.4-2.9,1.3c-0.8,0.9-1.2,1.9-1.2,3.1c0,1.2,0.4,2.2,1.2,3c0.8,0.8,1.8,1.2,2.9,1.2
			c1.1,0,2-0.4,2.8-1.3C605.8,160.6,606.2,159.6,606.2,158.4 M319,158.4c0,1.2,0.4,2.2,1.2,3.1c0.8,0.8,1.8,1.3,2.9,1.3
			c1.1,0,2.1-0.4,2.9-1.3c0.8-0.8,1.2-1.8,1.2-3.1c0-1.3-0.4-2.3-1.2-3.1c-0.8-0.8-1.8-1.2-3-1.2c-1.1,0-2,0.4-2.8,1.3
			C319.4,156.2,319,157.2,319,158.4 M372.7,158.4c0,1.2,0.4,2.2,1.2,3.1c0.8,0.8,1.8,1.3,2.9,1.3c1.1,0,2.1-0.4,2.9-1.3
			c0.8-0.8,1.2-1.8,1.2-3.1c0-1.3-0.4-2.3-1.2-3.1c-0.8-0.8-1.8-1.2-3-1.2c-1.1,0-2,0.4-2.8,1.3
			C373.1,156.2,372.7,157.2,372.7,158.4 M446.1,158.4c0,1.2,0.4,2.2,1.2,3.1c0.8,0.8,1.8,1.3,2.9,1.3c1.2,0,2.1-0.4,2.9-1.3
			c0.8-0.8,1.2-1.8,1.2-3.1c0-1.3-0.4-2.3-1.2-3.1c-0.8-0.8-1.8-1.2-3-1.2c-1.1,0-2,0.4-2.8,1.3
			C446.5,156.2,446.1,157.2,446.1,158.4 M630.5,158.4c0,1.2,0.4,2.2,1.2,3.1c0.8,0.8,1.8,1.3,2.9,1.3c1.1,0,2.1-0.4,2.9-1.3
			c0.8-0.8,1.2-1.8,1.2-3.1c0-1.3-0.4-2.3-1.2-3.1c-0.8-0.8-1.8-1.2-3-1.2c-1.1,0-2,0.4-2.8,1.3
			C630.9,156.2,630.5,157.2,630.5,158.4 M362.3,157.7c-0.3-1.2-0.7-2.1-1.4-2.7c-0.7-0.6-1.6-0.9-2.7-0.9c-1,0-1.9,0.3-2.6,1
			c-0.7,0.6-1.2,1.5-1.3,2.6H362.3z M526,157.7c-0.3-1.2-0.7-2.1-1.4-2.7c-0.7-0.6-1.6-0.9-2.7-0.9c-1,0-1.9,0.3-2.6,1
			c-0.7,0.6-1.2,1.5-1.3,2.6H526z M368.2,151.9h-1.4v-2.2h1.4V151.9z M441.6,151.9h-1.4v-2.2h1.4V151.9z M626,151.9h-1.4v-2.2h1.4
			V151.9z M634.3,151.7h-0.9l2-3.4h1.4L634.3,151.7z"/>
		<path class="st0" d="M325.8,182.7h-9.6c0.1,1.2,0.5,2.1,1.3,2.8c0.8,0.7,1.7,1.1,2.8,1.1c0.8,0,1.5-0.2,2.2-0.6
			c0.6-0.4,1.1-1,1.5-1.8h1.5c-0.5,1.2-1.2,2.1-2.1,2.7c-0.9,0.6-1.9,1-3.1,1c-1.5,0-2.8-0.6-3.9-1.7c-1.1-1.1-1.6-2.4-1.6-4
			c0-1.6,0.5-3,1.5-4c1.1-1,2.4-1.6,4-1.6c1.6,0,2.9,0.6,3.9,1.7C325.3,179.4,325.8,180.8,325.8,182.7L325.8,182.7z M310.8,178.6
			v-2.4v-2.7h1.4v14.1h-1.4v-1.6c-0.5,0.6-1.1,1.1-1.8,1.4c-0.7,0.3-1.5,0.5-2.3,0.5c-1.5,0-2.8-0.5-3.9-1.6c-1-1.1-1.6-2.4-1.6-4
			c0-1.6,0.5-2.9,1.6-4c1-1.1,2.4-1.6,3.9-1.6c0.9,0,1.6,0.1,2.3,0.5C309.7,177.5,310.3,178,310.8,178.6 M353,185.9
			c-0.4,0.6-1,1.1-1.7,1.5c-0.7,0.3-1.5,0.5-2.4,0.5c-1.5,0-2.8-0.5-3.9-1.6c-1.1-1.1-1.6-2.4-1.6-4c0-1.6,0.5-2.9,1.6-4
			c1.1-1.1,2.4-1.6,4-1.6c0.8,0,1.6,0.1,2.3,0.5c0.7,0.3,1.2,0.8,1.7,1.5v-1.7h1.3v10.6H353V185.9z M339.4,173.5h1.4v14.1h-1.4
			V173.5z M368.6,173.5h3c0.9,0,1.5,0,2.1,0.1c0.5,0.1,1,0.2,1.3,0.4c0.6,0.4,1.1,0.9,1.4,1.5c0.4,0.6,0.5,1.3,0.5,2
			c0,0.7-0.1,1.4-0.4,2c-0.3,0.6-0.7,1.1-1.3,1.5c-0.4,0.3-0.8,0.4-1.3,0.5c-0.5,0.1-1.2,0.2-2,0.2H370v5.9h-1.4V173.5z
			 M310.8,182.3c0-1.2-0.4-2.3-1.2-3.1c-0.8-0.8-1.8-1.3-2.8-1.3c-1.1,0-2.1,0.4-2.9,1.2c-0.8,0.8-1.2,1.8-1.2,3
			c0,1.2,0.4,2.3,1.2,3.1c0.8,0.8,1.8,1.3,2.9,1.3c1,0,2-0.4,2.8-1.3C310.4,184.4,310.8,183.5,310.8,182.3 M353,182.2
			c0-1.1-0.4-2.1-1.2-3c-0.8-0.8-1.8-1.3-2.8-1.3c-1.1,0-2.1,0.4-2.9,1.3c-0.8,0.8-1.2,1.9-1.2,3.1c0,1.2,0.4,2.2,1.2,3
			c0.8,0.8,1.8,1.2,2.9,1.2c1.1,0,2-0.4,2.8-1.3C352.6,184.4,353,183.4,353,182.2 M324.3,181.5c-0.3-1.2-0.7-2.1-1.4-2.7
			c-0.7-0.6-1.6-0.9-2.7-0.9c-1,0-1.9,0.3-2.7,1c-0.7,0.6-1.1,1.5-1.3,2.6H324.3z M370,174.9v5.4h2.1c1.1,0,2-0.2,2.5-0.7
			c0.5-0.4,0.8-1.1,0.8-2s-0.3-1.6-0.8-2.1c-0.6-0.4-1.4-0.6-2.6-0.6H370z"/>
		<path class="st0" d="M378.3,182.2c0-1.6,0.5-2.9,1.6-4c1.1-1.1,2.3-1.7,3.8-1.7c1.6,0,2.9,0.5,3.9,1.6c1.1,1.1,1.6,2.4,1.6,3.9
			c0,1.6-0.5,2.9-1.6,4.1c-1,1.1-2.3,1.7-3.9,1.7c-1.5,0-2.9-0.6-3.9-1.7C378.8,185.1,378.3,183.8,378.3,182.2 M420.9,180.2
			c-0.4-0.8-0.9-1.4-1.5-1.7c-0.6-0.4-1.3-0.5-2.1-0.5c-1.1,0-2.1,0.4-2.8,1.3c-0.8,0.8-1.2,1.9-1.2,3.1c0,1.2,0.4,2.2,1.2,3.1
			c0.8,0.8,1.7,1.2,2.8,1.2c0.8,0,1.6-0.2,2.2-0.6c0.6-0.4,1.1-1,1.5-1.7h1.5c-0.4,1.2-1.1,2.1-1.9,2.7c-0.9,0.6-1.9,1-3.1,1
			c-1.6,0-2.8-0.6-3.9-1.7c-1-1.1-1.6-2.4-1.6-3.9c0-1.6,0.5-2.9,1.6-4c1.1-1.1,2.4-1.7,3.9-1.7c1.2,0,2.2,0.3,3.1,0.9
			c0.9,0.6,1.5,1.5,2,2.6H420.9z M474,182.7h-9.6c0.1,1.2,0.5,2.1,1.3,2.8c0.8,0.7,1.7,1.1,2.8,1.1c0.8,0,1.5-0.2,2.2-0.6
			c0.6-0.4,1.1-1,1.5-1.8h1.6c-0.5,1.2-1.2,2.1-2.1,2.7c-0.9,0.6-1.9,1-3.1,1c-1.5,0-2.9-0.6-3.9-1.7c-1.1-1.1-1.6-2.4-1.6-4
			c0-1.6,0.5-3,1.6-4c1-1,2.4-1.6,4-1.6c1.6,0,2.9,0.6,3.9,1.7c1,1.1,1.5,2.5,1.5,4.3V182.7z M512.3,182.7h-9.6
			c0.1,1.2,0.5,2.1,1.3,2.8c0.7,0.7,1.7,1.1,2.8,1.1c0.8,0,1.5-0.2,2.2-0.6c0.6-0.4,1.1-1,1.5-1.8h1.5c-0.5,1.2-1.2,2.1-2.1,2.7
			c-0.9,0.6-1.9,1-3.1,1c-1.5,0-2.9-0.6-3.9-1.7c-1.1-1.1-1.6-2.4-1.6-4c0-1.6,0.5-3,1.6-4c1.1-1,2.4-1.6,4-1.6
			c1.6,0,2.9,0.6,3.9,1.7c1,1.1,1.5,2.5,1.5,4.3V182.7z M548.7,182.2c0-1.6,0.5-2.9,1.6-4c1.1-1.1,2.4-1.7,3.8-1.7
			c1.6,0,2.9,0.5,4,1.6c1.1,1.1,1.6,2.4,1.6,3.9c0,1.6-0.5,2.9-1.6,4.1c-1.1,1.1-2.4,1.7-3.9,1.7c-1.5,0-2.8-0.6-3.9-1.7
			C549.3,185.1,548.7,183.8,548.7,182.2 M571.2,182.2c0-1.6,0.5-2.9,1.6-4c1.1-1.1,2.3-1.7,3.8-1.7c1.5,0,2.8,0.5,3.9,1.6
			c1.1,1.1,1.6,2.4,1.6,3.9c0,1.6-0.5,2.9-1.6,4.1c-1.1,1.1-2.4,1.7-3.9,1.7c-1.6,0-2.8-0.6-3.9-1.7
			C571.7,185.1,571.2,183.8,571.2,182.2 M605.4,182.2c0-1.6,0.5-2.9,1.6-4c1.1-1.1,2.3-1.7,3.8-1.7c1.5,0,2.8,0.5,3.9,1.6
			c1.1,1.1,1.6,2.4,1.6,3.9c0,1.6-0.5,2.9-1.6,4.1c-1,1.1-2.3,1.7-3.9,1.7c-1.5,0-2.8-0.6-3.9-1.7
			C606,185.1,605.4,183.8,605.4,182.2 M627.6,180.2c-0.4-0.8-1-1.4-1.6-1.7c-0.6-0.4-1.3-0.5-2.2-0.5c-1.1,0-2,0.4-2.8,1.3
			c-0.8,0.8-1.2,1.9-1.2,3.1c0,1.2,0.4,2.2,1.2,3.1c0.8,0.8,1.7,1.2,2.9,1.2c0.8,0,1.5-0.2,2.2-0.6c0.6-0.4,1.1-1,1.5-1.7h1.5
			c-0.4,1.2-1.1,2.1-1.9,2.7c-0.9,0.6-1.9,1-3.2,1c-1.5,0-2.8-0.6-3.9-1.7c-1-1.1-1.6-2.4-1.6-3.9c0-1.6,0.6-2.9,1.6-4
			c1.1-1.1,2.4-1.7,3.9-1.7c1.2,0,2.2,0.3,3,0.9c0.9,0.6,1.6,1.5,2,2.6H627.6z M434.5,185.9c-0.4,0.6-1,1.1-1.7,1.5
			c-0.7,0.3-1.5,0.5-2.4,0.5c-1.5,0-2.9-0.5-3.9-1.6c-1-1.1-1.6-2.4-1.6-4c0-1.6,0.5-2.9,1.6-4c1.1-1.1,2.4-1.6,4-1.6
			c0.8,0,1.6,0.1,2.3,0.5c0.7,0.3,1.3,0.8,1.7,1.5v-1.7h1.3v10.6h-1.3V185.9z M458.9,178.6v-2.4v-2.8h1.4v14.1h-1.4v-1.6
			c-0.5,0.6-1.1,1.1-1.8,1.4c-0.7,0.3-1.5,0.5-2.3,0.5c-1.5,0-2.8-0.5-3.9-1.6c-1.1-1.1-1.6-2.4-1.6-4c0-1.6,0.5-2.9,1.6-4
			c1-1.1,2.3-1.6,3.9-1.6c0.9,0,1.6,0.1,2.3,0.5C457.9,177.5,458.5,178,458.9,178.6 M514.3,184.2h1.4v0c0,0.7,0.2,1.2,0.6,1.7
			c0.4,0.4,0.8,0.7,1.4,0.7c0.5,0,1-0.2,1.3-0.5c0.3-0.3,0.5-0.8,0.5-1.3c0-0.5-0.1-0.9-0.4-1.2c-0.3-0.3-0.8-0.6-1.5-0.9
			c-1.2-0.4-2-0.8-2.3-1.3c-0.4-0.4-0.5-1-0.5-1.8c0-0.8,0.3-1.5,0.9-2.1c0.6-0.6,1.3-0.9,2.2-0.9c0.9,0,1.6,0.3,2.2,0.8
			c0.5,0.5,0.8,1.2,0.9,2.2h-1.5c-0.1-0.5-0.2-0.9-0.5-1.2c-0.3-0.3-0.7-0.4-1.2-0.4c-0.5,0-0.8,0.2-1.1,0.5
			c-0.3,0.3-0.5,0.7-0.5,1.1c0,0.3,0.1,0.6,0.2,0.8c0.1,0.2,0.3,0.4,0.6,0.6c0.3,0.1,0.6,0.3,1.1,0.5c0.5,0.1,0.8,0.2,1,0.3
			c0.7,0.3,1.2,0.7,1.5,1.1c0.3,0.5,0.5,1.1,0.5,1.8c0,0.9-0.3,1.7-1,2.3c-0.7,0.6-1.4,0.9-2.4,0.9c-1,0-1.8-0.3-2.4-1
			C514.6,186.2,514.3,185.3,514.3,184.2 M532.7,185.9c-0.4,0.6-1,1.1-1.7,1.5c-0.7,0.3-1.5,0.5-2.4,0.5c-1.5,0-2.9-0.5-3.9-1.6
			c-1.1-1.1-1.6-2.4-1.6-4c0-1.6,0.5-2.9,1.6-4c1.1-1.1,2.4-1.6,4-1.6c0.8,0,1.6,0.1,2.3,0.5c0.7,0.3,1.3,0.8,1.7,1.5v-1.7h1.3v10.6
			h-1.3V185.9z M595.2,183.5h1.3c0,0.9,0.3,1.6,0.7,2.1c0.5,0.5,1.1,0.8,1.8,0.8c0.8,0,1.5-0.3,2-0.8c0.5-0.5,0.7-1.2,0.7-2.1
			c0-1.3-1-2.2-3-2.9c-0.1-0.1-0.3-0.1-0.3-0.1c-1-0.4-1.8-0.8-2.2-1.3c-0.5-0.5-0.7-1.3-0.7-2.2c0-1.1,0.4-2.1,1.1-2.8
			c0.7-0.7,1.6-1.1,2.7-1.1c1,0,1.9,0.3,2.5,0.9c0.6,0.7,1,1.6,1,2.8h-1.3c-0.1-0.8-0.3-1.4-0.7-1.8c-0.4-0.4-0.9-0.6-1.5-0.6
			c-0.7,0-1.3,0.2-1.7,0.7c-0.4,0.5-0.6,1.1-0.6,1.8c0,0.4,0.1,0.7,0.2,0.9c0.1,0.3,0.3,0.5,0.6,0.7c0.3,0.2,0.9,0.4,1.7,0.7
			c0.5,0.2,0.8,0.3,1.1,0.4c0.9,0.4,1.6,0.8,2,1.4c0.4,0.5,0.6,1.3,0.6,2.2c0,1.4-0.4,2.5-1.1,3.3c-0.8,0.8-1.8,1.2-3,1.2
			c-1.2,0-2.1-0.4-2.8-1.2C595.6,185.8,595.2,184.8,595.2,183.5 M645.8,185.9c-0.4,0.6-1,1.1-1.7,1.5c-0.7,0.3-1.5,0.5-2.4,0.5
			c-1.5,0-2.9-0.5-3.9-1.6c-1-1.1-1.6-2.4-1.6-4c0-1.6,0.5-2.9,1.6-4c1.1-1.1,2.4-1.6,4-1.6c0.8,0,1.6,0.1,2.3,0.5
			c0.7,0.3,1.3,0.8,1.7,1.5v-1.7h1.3v10.6h-1.3V185.9z M392,173.5h1.4v14.1H392V173.5z M396.6,176.9h1.4v10.7h-1.4V176.9z
			 M402.2,187.5v-9.3h-2v-1.4h2v-3.4h1.4v3.4h2v1.4h-2v9.3H402.2z M407.8,176.9h1.4v10.7h-1.4V176.9z M487.8,173.5h4
			c1.1,0,2.1,0.1,2.8,0.3c0.8,0.2,1.4,0.6,2,1.1c0.8,0.7,1.4,1.5,1.9,2.5c0.4,1,0.7,2,0.7,3.2c0,1.2-0.2,2.4-0.7,3.4
			c-0.5,1-1.2,1.9-2.1,2.5c-0.6,0.4-1.2,0.7-1.9,0.9c-0.7,0.2-1.8,0.3-3.2,0.3h-3.4V173.5z M538.7,187.5h-1.4v-10.6h1.3v1.2
			c0.3-0.5,0.7-0.8,1.1-1c0.4-0.2,0.8-0.3,1.4-0.3v1.5c-0.9,0.1-1.5,0.3-1.8,0.8c-0.4,0.4-0.5,1.1-0.5,2.1V187.5z M544.7,187.5h-1.4
			v-10.6h1.3v1.2c0.3-0.5,0.7-0.8,1.1-1c0.4-0.2,0.9-0.3,1.4-0.3l0,1.5c-0.9,0.1-1.5,0.3-1.8,0.8c-0.4,0.4-0.6,1.1-0.6,2.1V187.5z
			 M562.4,173.5h1.4v14.1h-1.4V173.5z M567.1,173.5h1.4v14.1h-1.4V173.5z M632.2,176.9h1.4v10.7h-1.4V176.9z M650.4,173.5h1.4v14.1
			h-1.4V173.5z M434.5,182.2c0-1.1-0.4-2.1-1.2-3c-0.8-0.8-1.8-1.3-2.8-1.3c-1.1,0-2.1,0.4-2.9,1.3c-0.8,0.8-1.2,1.9-1.2,3.1
			c0,1.2,0.4,2.2,1.2,3c0.8,0.8,1.8,1.2,2.9,1.2c1.1,0,2-0.4,2.8-1.3C434.1,184.4,434.5,183.4,434.5,182.2 M459,182.3
			c0-1.2-0.4-2.3-1.2-3.1c-0.8-0.8-1.7-1.3-2.8-1.3c-1.1,0-2.1,0.4-2.9,1.2c-0.8,0.8-1.2,1.8-1.2,3c0,1.2,0.4,2.3,1.2,3.1
			c0.8,0.8,1.8,1.3,2.9,1.3c1.1,0,2-0.4,2.8-1.3C458.6,184.4,459,183.5,459,182.3 M532.7,182.2c0-1.1-0.4-2.1-1.2-3
			c-0.8-0.8-1.7-1.3-2.8-1.3c-1.1,0-2.1,0.4-2.9,1.3c-0.8,0.8-1.2,1.9-1.2,3.1c0,1.2,0.4,2.2,1.2,3c0.8,0.8,1.8,1.2,2.9,1.2
			c1.1,0,2-0.4,2.8-1.3C532.3,184.4,532.7,183.4,532.7,182.2 M645.8,182.2c0-1.1-0.4-2.1-1.2-3c-0.8-0.8-1.7-1.3-2.8-1.3
			c-1.1,0-2.1,0.4-2.9,1.3c-0.8,0.8-1.2,1.9-1.2,3.1c0,1.2,0.4,2.2,1.2,3c0.8,0.8,1.8,1.2,2.9,1.2c1.1,0,2-0.4,2.8-1.3
			C645.5,184.4,645.8,183.4,645.8,182.2 M379.7,182.2c0,1.2,0.4,2.2,1.2,3.1c0.8,0.8,1.8,1.3,2.9,1.3c1.1,0,2.1-0.4,2.9-1.3
			c0.8-0.8,1.2-1.9,1.2-3.1c0-1.3-0.4-2.3-1.2-3.1c-0.8-0.8-1.8-1.2-3-1.2c-1.1,0-2,0.4-2.8,1.2C380.1,180,379.7,181,379.7,182.2
			 M550.2,182.2c0,1.2,0.4,2.2,1.2,3.1c0.8,0.8,1.8,1.3,2.9,1.3c1.1,0,2.1-0.4,2.9-1.3c0.8-0.8,1.2-1.9,1.2-3.1
			c0-1.3-0.4-2.3-1.2-3.1c-0.8-0.8-1.8-1.2-3-1.2c-1.1,0-2,0.4-2.8,1.2C550.6,180,550.2,181,550.2,182.2 M572.6,182.2
			c0,1.2,0.4,2.2,1.2,3.1c0.8,0.8,1.8,1.3,2.9,1.3c1.2,0,2.1-0.4,2.9-1.3c0.8-0.8,1.2-1.9,1.2-3.1c0-1.3-0.4-2.3-1.2-3.1
			c-0.8-0.8-1.8-1.2-3-1.2c-1.1,0-2,0.4-2.8,1.2C573,180,572.6,181,572.6,182.2 M606.9,182.2c0,1.2,0.4,2.2,1.2,3.1
			c0.8,0.8,1.8,1.3,2.9,1.3c1.2,0,2.1-0.4,2.9-1.3c0.8-0.8,1.2-1.9,1.2-3.1c0-1.3-0.4-2.3-1.2-3.1c-0.8-0.8-1.8-1.2-3-1.2
			c-1.1,0-2,0.4-2.8,1.2C607.3,180,606.9,181,606.9,182.2 M489.1,174.8v11.4h2.9c1.8,0,3.2-0.5,4.2-1.5c1-1,1.4-2.4,1.4-4.3
			c0-0.9-0.2-1.8-0.5-2.6c-0.3-0.8-0.8-1.4-1.4-2c-0.5-0.4-1-0.7-1.5-0.8c-0.5-0.2-1.4-0.3-2.5-0.3H489.1z M472.5,181.5
			c-0.3-1.2-0.7-2.1-1.4-2.7c-0.7-0.6-1.6-0.9-2.7-0.9c-1,0-1.9,0.3-2.6,1c-0.7,0.6-1.2,1.5-1.3,2.6H472.5z M510.8,181.5
			c-0.3-1.2-0.7-2.1-1.4-2.7c-0.7-0.6-1.6-0.9-2.7-0.9c-1,0-1.9,0.3-2.6,1c-0.7,0.6-1.2,1.5-1.3,2.6H510.8z M409.1,175.7h-1.4v-2.2
			h1.4V175.7z M633.6,175.7h-1.4v-2.2h1.4V175.7z M397,175.5h-0.9l2-3.4h1.5L397,175.5z"/>
	</g>
	<g>
		<path class="st0" d="M144,66.9c-11.5,0-20.5,9-20.5,20.5v0.2c0,11.2,9.2,20.3,20.5,20.3c11.5,0,20.5-9,20.5-20.5
			C164.5,75.9,155.5,66.9,144,66.9z M144,103.2c-8.7,0-15.8-7-15.8-15.6v-0.2c0-8.9,7-15.8,15.8-15.8c8.9,0,15.8,7,15.8,15.8
			C159.8,96.3,152.9,103.2,144,103.2z"/>
		<path class="st0" d="M179.8,112.4c6.5-5.1,14.5-14.4,14.5-29.8c0-21.4-17.3-43.2-50.4-43.2c-33.1,0-50.4,21.6-50.4,43v0.2
			c0,10.8,4,18.6,8.6,24l0,0c0.2,0.2,1.2,1.6,3.3,3.4c0.2,0.2,0.4,0.3,0.5,0.5c0.1,0.1,0.2,0.2,0.3,0.3c0.6,0.5,1.2,1.1,1.8,1.5
			c-12.6,7.1-19.7,20.4-19.9,37.9c0.2,30.3,23.7,52.2,55.7,52.2c1.8,0,3.5-0.1,5.3-0.2l1.6-4.8c-2.2,0.2-4.5,0.4-6.8,0.4
			c-29.4,0-50.9-20-51.1-47.6c0.1-9.7,2.9-26.9,19.7-35c4.3,2.6,10.1,5.1,17.4,6.3c7.7,1.3,20.9,4.6,29.5,14.7c0,0,0.1,0.1,0.1,0.1
			c2.9,3.5,4.8,8.1,4.8,13.7c0,10-7.8,20.8-20.4,20.8c-9.8,0-20.4-7.9-20.4-20.6v-0.2c0-10.9,7.2-18.2,15.4-20.3l-4.2-3.5
			c-8.7,3.5-15.8,11.9-15.8,23.8v0.2c0,15.6,13,25.2,25,25.2c15.4,0,25-13.2,25-25.4c0-6.4-2-11.8-5.3-15.9l0,0
			c-0.1-0.1-0.1-0.1-0.2-0.2c-0.2-0.2-0.4-0.4-0.6-0.7c-9.3-11.2-23-14.9-33-16.5c-5.8-0.9-10.4-2.7-14.1-4.8l-2-1.3
			C108,107,98.3,98.4,98.3,82.6v-0.2C98.3,63.3,114,44,144,44c22.7,0,45.7,13.2,45.7,38.5c0,15.8-9.8,24.4-15.6,28.2l-3.6,2.3
			l3.9,1.8c17.7,7.9,20.6,25.6,20.7,35.4c-0.1,9.3-2.5,17.6-6.9,24.7h5.4c3.9-7.2,6.1-15.6,6.1-24.7
			C199.5,132.8,192.5,119.5,179.8,112.4z"/>
		<g>
			<path class="st0" d="M157.9,202.4h-4.1l7.6-18.6h3.3l7.4,18.6H168l-1.4-3.7h-7.4L157.9,202.4z M162.9,188.2l-2.6,7.6h5.4
				L162.9,188.2z"/>
			<path class="st0" d="M186,196.6l-0.1-12.9h3.6v18.6h-3.3l-8.6-12.9l0.1,12.9h-3.6v-18.6h3.3L186,196.6z M186.7,181.1
				c-0.8,0.6-1.7,1-2.7,1c-0.6,0-1.4-0.2-2.1-0.4c-0.8-0.2-1.5-0.4-2-0.4c-0.8,0-1.4,0.3-1.9,0.7l-1.2-2.3c0.6-0.4,1.6-0.9,2.7-0.9
				c0.7,0,1.5,0.2,2.1,0.4c0.7,0.2,1.3,0.4,2,0.4c0.9,0,1.5-0.2,1.9-0.6L186.7,181.1z"/>
			<path class="st0" d="M192.2,193.2c0-6,4.6-9.8,9.8-9.8c5.6,0,9.8,4.4,9.8,9.7c0,5.3-4.1,9.7-9.8,9.7
				C196.2,202.7,192.2,198.2,192.2,193.2L192.2,193.2z M196,193c0,3.4,2.4,6.4,6.1,6.4c3.8,0,6-3.3,6-6.3c0-3.1-2.2-6.4-6-6.4
				C198.3,186.7,196,189.7,196,193L196,193z"/>
			<path class="st0" d="M217.2,196.6c0.1,2.5,1.8,3,2.6,3c1.4,0,2.5-1.2,2.5-2.5c0-1.6-1.3-2-3.9-3c-1.4-0.5-4.7-1.7-4.7-5.2
				c0-3.6,3.1-5.5,6.2-5.5c2.5,0,5.7,1.3,5.9,5.4h-3.7c-0.2-0.9-0.5-2.3-2.3-2.3c-1.2,0-2.3,0.9-2.3,2.1c0,1.4,1,1.7,4.1,3
				c2.8,1.2,4.4,2.6,4.4,5.2c0,3-1.8,5.8-6.2,5.8c-4.2,0-6.4-2.5-6.4-6.1H217.2z"/>
		</g>
		<g>
			<polygon class="st0" points="47.8,202.4 43.1,202.4 43.1,78.3 19.8,94.2 17.1,90.3 47.8,69.2 			"/>
		</g>
		<g>
			<polygon class="st0" points="78.4,202.4 73.7,202.4 73.7,44.1 46.4,44.1 19.8,62.7 17.1,58.8 44.9,39.4 78.4,39.4 			"/>
		</g>
	</g>
</g>
</svg>
