<svg width="254" height="196" xmlns="http://www.w3.org/2000/svg" xmlns:xlink="http://www.w3.org/1999/xlink" xml:space="preserve" overflow="hidden"><g transform="translate(-2755 -1176)"><g><g><g><path d="M174.562 154.35 149.042 128.829C145.571 125.358 140.875 124.133 136.383 124.95L127.4 115.967C135.362 105.758 140.058 92.6916 140.058 78.8083 140.058 45.1208 112.496 17.5583 78.8083 17.5583 45.1208 17.5583 17.5583 45.1208 17.5583 78.8083 17.5583 112.496 45.1208 140.058 78.8083 140.058 92.6916 140.058 105.554 135.362 115.967 127.4L124.95 136.383C124.133 140.875 125.358 145.571 128.829 149.042L154.35 174.562C157.208 177.421 160.883 178.85 164.558 178.85 168.233 178.85 171.908 177.421 174.767 174.562 180.075 168.846 180.075 159.862 174.562 154.35ZM78.6041 127.604C51.6541 127.604 29.6042 105.554 29.6042 78.6041 29.6042 51.6541 51.6541 29.6042 78.6041 29.6042 105.554 29.6042 127.604 51.6541 127.604 78.6041 127.604 105.554 105.554 127.604 78.6041 127.604Z" fill="#A6A6A6" transform="matrix(1.0051 0 0 1 2755 1176)"/></g></g></g><g><g><g><path d="M26.9999 42.1874 38.8124 42.1874 38.8124 69.1873 26.9999 69.1873Z" fill="#008870" transform="matrix(1 0 0 1 2795 1213)"/><path d="M42.1874 26.9999 53.9998 26.9999 53.9998 69.1873 42.1874 69.1873Z" fill="#008870" transform="matrix(1 0 0 1 2795 1213)"/><path d="M57.3748 11.8125 69.1873 11.8125 69.1873 69.1873 57.3748 69.1873Z" fill="#008870" transform="matrix(1 0 0 1 2795 1213)"/><path d="M11.8125 57.3748 23.6249 57.3748 23.6249 69.1873 11.8125 69.1873Z" fill="#008870" transform="matrix(1 0 0 1 2795 1213)"/></g></g></g><g><g><g><path d="M75.3602 47.402C70.0227 47.402 65.829 43.0811 65.829 37.8707 65.829 32.6603 70.1498 28.3395 75.3602 28.3395 80.6977 28.3395 84.8914 32.6603 84.8914 37.8707 84.8914 43.0811 80.5706 47.402 75.3602 47.402ZM96.8372 31.8978C96.3289 30.1187 95.6935 28.4666 94.8039 26.9416L96.8372 20.9687 92.2623 16.3937 86.2894 18.427C84.7644 17.5375 83.1123 16.902 81.3331 16.3937L78.5373 10.8021 72.1831 10.8021 69.3873 16.3937C67.6082 16.902 65.9561 17.5375 64.4311 18.427L58.4582 16.3937 53.8832 20.9687 55.9165 26.9416C55.0269 28.4666 54.3915 30.1187 53.8832 31.8978L48.2915 34.6937 48.2915 41.0478 53.8832 43.8436C54.3915 45.6228 55.0269 47.2749 55.9165 48.7999L53.8832 54.7728 58.3311 59.2207 64.304 57.1873C65.829 58.0769 67.4811 58.7123 69.2602 59.2207L72.0561 64.8123 78.4102 64.8123 81.206 59.2207C82.9852 58.7123 84.6373 58.0769 86.1623 57.1873L92.1352 59.2207 96.7102 54.7728 94.6768 48.7999C95.5664 47.2749 96.3289 45.4957 96.8372 43.8436L102.429 41.0478 102.429 34.6937 96.8372 31.8978Z" fill="#7F7F7F" transform="matrix(1 0 0 1.0082 2887 1183)"/><path d="M46.6395 93.6602C41.302 93.6602 37.1082 89.3393 37.1082 84.1289 37.1082 78.7915 41.4291 74.5977 46.6395 74.5977 51.9769 74.5977 56.1707 78.9185 56.1707 84.1289 56.1707 89.3393 51.9769 93.6602 46.6395 93.6602L46.6395 93.6602ZM66.0832 73.1998 68.1165 67.2269 63.5415 62.6519 57.5686 64.6852C56.0436 63.7957 54.2644 63.1602 52.6124 62.6519L49.8165 57.0603 43.4624 57.0603 40.6666 62.6519C38.8874 63.1602 37.2353 63.7957 35.7103 64.6852L29.7374 62.6519 25.2895 67.0998 27.1958 73.0727C26.3062 74.5977 25.6708 76.3769 25.1624 78.029L19.5708 80.8248 19.5708 87.1789 25.1624 89.9748C25.6708 91.7539 26.3062 93.406 27.1958 94.931L25.2895 100.904 29.7374 105.352 35.7103 103.446C37.2353 104.335 38.8874 104.971 40.6666 105.479L43.4624 111.071 49.8165 111.071 52.6124 105.479C54.3915 104.971 56.0436 104.335 57.5686 103.446L63.5415 105.479 67.9894 100.904 66.0832 95.0581C66.9727 93.5331 67.6082 91.881 68.1165 90.1018L73.7081 87.306 73.7081 80.9519 68.1165 78.156C67.6082 76.3769 66.9727 74.7248 66.0832 73.1998Z" fill="#7F7F7F" transform="matrix(1 0 0 1.0082 2887 1183)"/></g></g></g></g></svg>