<svg width="397" height="390" xmlns="http://www.w3.org/2000/svg" xmlns:xlink="http://www.w3.org/1999/xlink" xml:space="preserve" overflow="hidden"><defs><clipPath id="clip0"><rect x="1408" y="1109" width="397" height="390"/></clipPath></defs><g clip-path="url(#clip0)" transform="translate(-1408 -1109)"><path d="M1408 1174C1408 1138.1 1437.1 1109 1473 1109L1740 1109C1775.9 1109 1805 1138.1 1805 1174L1805 1434C1805 1469.9 1775.9 1499 1740 1499L1473 1499C1437.1 1499 1408 1469.9 1408 1434Z" fill="#5886A0" fill-rule="evenodd"/><path d="M1764 1293.73C1764 1286.18 1757.8 1280 1750.23 1280 1747.47 1280 1745.06 1280.69 1743 1282.06L1684.12 1315.7C1684.81 1319.47 1684.81 1323.25 1684.12 1327.37 1681.36 1340.07 1669.31 1348.65 1656.23 1348.65L1595.28 1348.65 1595.28 1334.92 1657.26 1334.92C1664.84 1334.92 1671.03 1328.74 1671.03 1321.19 1671.03 1313.64 1664.84 1307.46 1657.26 1307.46 1657.26 1307.46 1575.31 1307.46 1574.62 1307.46 1568.77 1307.46 1563.26 1309.18 1558.44 1311.92L1461 1358.95 1509.2 1407C1531.59 1384.69 1560.51 1376.11 1591.84 1376.11L1656.23 1376.11C1659.33 1376.11 1662.08 1375.08 1664.49 1373.36L1759.18 1304.37C1761.93 1301.62 1764 1297.85 1764 1293.73Z" fill="#FFFFFF" fill-rule="evenodd"/><path d="M1716.41 1180.59C1716.41 1180.59 1673.61 1175.08 1650.83 1197.79 1634.26 1214.3 1632.53 1240.79 1632.88 1254.56 1625.63 1259.72 1619.41 1267.28 1615.27 1276.23 1614.24 1274.85 1613.55 1273.48 1612.51 1272.1 1612.86 1260.75 1611.13 1239.07 1597.67 1225.66 1578.68 1206.73 1543.47 1211.55 1543.47 1211.55 1543.47 1211.55 1538.99 1246.64 1557.63 1265.56 1569.71 1277.61 1589.04 1280.01 1600.77 1280.36 1604.23 1284.14 1606.64 1289.65 1608.37 1294.46 1608.71 1295.5 1609.06 1297.9 1609.06 1301L1623.21 1301C1623.56 1293.78 1624.59 1289.65 1627.35 1283.8 1630.81 1275.54 1636.67 1268.66 1643.58 1264.53 1657.73 1264.88 1683.27 1262.47 1699.15 1246.64 1721.93 1223.25 1716.41 1180.59 1716.41 1180.59Z" fill="#FFFFFF" fill-rule="evenodd"/></g></svg>