<svg width="213" height="204" xmlns="http://www.w3.org/2000/svg" xmlns:xlink="http://www.w3.org/1999/xlink" xml:space="preserve" overflow="hidden"><g transform="translate(-3299 -398)"><path d="M3302.5 500C3302.5 445.6 3348.61 401.5 3405.5 401.5 3462.39 401.5 3508.5 445.6 3508.5 500 3508.5 554.4 3462.39 598.5 3405.5 598.5 3348.61 598.5 3302.5 554.4 3302.5 500Z" stroke="#E0F1DA" stroke-width="6.875" stroke-miterlimit="8" fill="#E0F1DA" fill-rule="evenodd"/><g><g><g><path d="M3418.12 477.25 3390.12 477.25 3390.12 519.25 3368.25 519.25 3404.12 561.25 3440 519.25 3418.12 519.25Z" fill="#009169"/><path d="M3462.05 482.325C3460.65 473.75 3455.93 466.05 3448.93 460.975 3441.75 455.9 3432.65 453.975 3423.9 455.725 3415.32 442.6 3399.4 436.125 3384.18 439.8 3369.3 443.65 3358.1 456.075 3355.82 471.3 3346.02 471.65 3336.75 476.375 3330.8 484.25 3323.8 494.05 3322.57 506.825 3327.48 517.85 3332.55 528.7 3343.05 535.875 3354.95 536.575L3367.73 536.575 3363 530.8 3358.62 525.725 3355.48 525.725C3347.6 525.2 3340.6 520.475 3337.1 513.3 3333.77 505.95 3334.65 497.55 3339.38 490.9 3344.1 484.425 3351.98 481.275 3360.02 482.5L3366.15 483.55 3366.15 476.725C3366.15 464.3 3374.55 453.45 3386.62 450.475 3398.7 447.5 3411.12 453.45 3416.73 464.475L3418.82 468.675 3423.2 467.1C3429.85 464.825 3437.03 465.875 3442.8 469.9 3448.4 474.1 3451.73 480.575 3451.9 487.575L3451.9 493 3459.08 493C3468 493.35 3475 500.7 3474.83 509.45 3474.83 518.375 3467.65 525.55 3458.9 525.725L3449.8 525.725 3445.25 530.8 3440.35 536.75 3458.9 536.75C3473.08 536.4 3484.62 525.2 3485.5 511.025 3486.38 496.85 3476.05 484.425 3462.05 482.325Z" fill="#009169"/></g></g></g></g></svg>