<svg width="396" height="390" xmlns="http://www.w3.org/2000/svg" xmlns:xlink="http://www.w3.org/1999/xlink" xml:space="preserve" overflow="hidden"><defs><clipPath id="clip0"><rect x="3320" y="1095" width="396" height="390"/></clipPath></defs><g clip-path="url(#clip0)" transform="translate(-3320 -1095)"><path d="M3320 1160C3320 1124.1 3349.1 1095 3385 1095L3651 1095C3686.9 1095 3716 1124.1 3716 1160L3716 1420C3716 1455.9 3686.9 1485 3651 1485L3385 1485C3349.1 1485 3320 1455.9 3320 1420Z" fill="#6F64A9" fill-rule="evenodd"/><g><g><g><path d="M3470.91 1303.06 3486.75 1275.56C3482.63 1273.52 3478.73 1271.07 3475.1 1268.24L3457.91 1298.04C3462.44 1299.16 3466.81 1300.85 3470.91 1303.06Z" fill="#FFFFFF"/><path d="M3535.91 1361.5C3535.44 1358.66 3535.2 1355.79 3535.19 1352.91 3535.19 1351.18 3535.28 1349.46 3535.46 1347.75L3500.54 1347.75C3500.72 1349.46 3500.81 1351.18 3500.81 1352.91 3500.8 1355.79 3500.56 1358.66 3500.09 1361.5Z" fill="#FFFFFF"/><path d="M3562.69 1304.47C3566.63 1302.05 3570.86 1300.12 3575.27 1298.73L3557.63 1268.17C3553.96 1271.04 3549.99 1273.51 3545.81 1275.56Z" fill="#FFFFFF"/><path d="M3444.09 1309.94C3420.36 1309.94 3401.12 1329.18 3401.12 1352.91 3401.12 1376.64 3420.36 1395.88 3444.09 1395.88 3467.82 1395.88 3487.06 1376.64 3487.06 1352.91 3487.06 1329.18 3467.82 1309.94 3444.09 1309.94ZM3444.09 1326.68C3450.76 1326.66 3456.17 1332.05 3456.19 1338.71 3456.21 1345.37 3450.83 1350.79 3444.16 1350.81 3437.5 1350.83 3432.08 1345.44 3432.06 1338.78 3432.06 1338.76 3432.06 1338.73 3432.06 1338.71 3432.08 1332.07 3437.46 1326.7 3444.09 1326.68ZM3468.16 1375.01 3420.03 1375.01 3420.03 1365.83C3420.08 1363.95 3420.96 1362.18 3422.44 1361.02 3426 1358.46 3429.98 1356.52 3434.19 1355.28 3437.42 1354.34 3440.76 1353.83 3444.13 1353.77 3447.5 1353.79 3450.84 1354.3 3454.06 1355.28 3458.33 1356.39 3462.32 1358.34 3465.82 1361.02 3467.3 1362.18 3468.18 1363.95 3468.23 1365.83Z" fill="#FFFFFF"/><path d="M3569.56 1215.41C3569.56 1185.98 3545.71 1162.13 3516.28 1162.13 3486.85 1162.13 3463 1185.98 3463 1215.41 3463 1244.83 3486.85 1268.69 3516.28 1268.69 3545.71 1268.69 3569.56 1244.83 3569.56 1215.41ZM3516.18 1182.75C3524.44 1182.75 3531.13 1189.44 3531.13 1197.7 3531.13 1205.96 3524.44 1212.66 3516.18 1212.66 3507.92 1212.66 3501.23 1205.96 3501.23 1197.7 3501.24 1189.45 3507.93 1182.77 3516.18 1182.75ZM3546.02 1242.7 3486.31 1242.7 3486.31 1231.22C3486.35 1228.88 3487.45 1226.68 3489.3 1225.24 3493.7 1222.06 3498.62 1219.66 3503.84 1218.16 3507.85 1216.99 3512 1216.36 3516.18 1216.3 3520.35 1216.31 3524.5 1216.93 3528.48 1218.16 3533.76 1219.53 3538.72 1221.94 3543.06 1225.24 3544.89 1226.69 3545.97 1228.88 3546.02 1231.22Z" fill="#FFFFFF"/><path d="M3591.91 1309.94C3568.18 1309.94 3548.94 1329.18 3548.94 1352.91 3548.94 1376.64 3568.18 1395.88 3591.91 1395.88 3615.64 1395.88 3634.88 1376.64 3634.88 1352.91 3634.88 1329.18 3615.64 1309.94 3591.91 1309.94ZM3591.91 1326.68C3598.57 1326.66 3603.99 1332.05 3604.01 1338.71 3604.03 1345.37 3598.64 1350.79 3591.98 1350.81 3585.31 1350.83 3579.89 1345.44 3579.88 1338.78 3579.88 1338.76 3579.88 1338.73 3579.88 1338.71 3579.89 1332.07 3585.27 1326.7 3591.91 1326.68ZM3615.97 1375.01 3567.84 1375.01 3567.84 1365.83C3567.89 1363.95 3568.77 1362.18 3570.25 1361.02 3573.82 1358.46 3577.79 1356.52 3582.01 1355.28 3585.24 1354.34 3588.58 1353.83 3591.94 1353.77 3595.31 1353.79 3598.65 1354.3 3601.88 1355.28 3606.14 1356.39 3610.14 1358.34 3613.63 1361.02 3615.11 1362.18 3615.99 1363.95 3616.04 1365.83Z" fill="#FFFFFF"/></g></g></g></g></svg>