<svg width="70" height="70" xmlns="http://www.w3.org/2000/svg" xmlns:xlink="http://www.w3.org/1999/xlink" xml:space="preserve" overflow="hidden"><g transform="translate(-650 -388)"><path d="M716.062 414.469 712.271 413.083 712.271 405.135 716.062 403.531 690.396 394.052 659.188 404.99C656.198 406.448 656.125 410.458 656.125 413.74 656.125 414.833 656.271 415.927 656.49 416.948 654.01 418.552 653.938 422.271 653.938 425.406 653.938 427.958 654.521 430.292 656.125 431.75 655.76 432.99 655.979 434.521 655.979 436.344 655.979 439.625 656.854 442.615 659.771 443.635L680.042 452.021 715.917 437.146 712.125 435.76 712.125 427.74 715.917 426.135 710.083 423.948 710.083 416.948 716.062 414.469ZM660.062 410.094 680.333 418.042 709.427 406.302 709.427 412.573 680.333 424.677 660.062 416.656 660.062 410.094ZM709.281 435.25 680.188 447.281 659.844 439.26 659.844 433.573 678 441.01 709.354 428.615 709.281 435.25ZM707.24 424.312 678.146 436.344 657.875 428.323 657.875 421.76 678.729 430.073 707.312 418.115 707.312 424.312Z" fill="#278148"/></g></svg>