<svg width="397" height="390" xmlns="http://www.w3.org/2000/svg" xmlns:xlink="http://www.w3.org/1999/xlink" xml:space="preserve" overflow="hidden"><defs><clipPath id="clip0"><rect x="2049" y="1097" width="397" height="390"/></clipPath></defs><g clip-path="url(#clip0)" transform="translate(-2049 -1097)"><path d="M2049 1162C2049 1126.1 2078.1 1097 2114 1097L2381 1097C2416.9 1097 2446 1126.1 2446 1162L2446 1422C2446 1457.9 2416.9 1487 2381 1487L2114 1487C2078.1 1487 2049 1457.9 2049 1422Z" fill="#234888" fill-rule="evenodd"/><path d="M2406 1332.84C2406 1325.23 2399.8 1319 2392.23 1319 2389.47 1319 2387.06 1319.69 2385 1321.08L2326.12 1354.98C2326.81 1358.78 2326.81 1362.59 2326.12 1366.74 2323.36 1379.54 2311.31 1388.19 2298.23 1388.19L2237.28 1388.19 2237.28 1374.35 2299.26 1374.35C2306.84 1374.35 2313.03 1368.12 2313.03 1360.51 2313.03 1352.9 2306.84 1346.68 2299.26 1346.68 2299.26 1346.68 2217.31 1346.68 2216.62 1346.68 2210.77 1346.68 2205.26 1348.41 2200.44 1351.17L2103 1398.57 2151.2 1447C2173.59 1424.51 2202.51 1415.86 2233.84 1415.86L2298.23 1415.86C2301.33 1415.86 2304.08 1414.83 2306.49 1413.1L2401.18 1343.56C2403.93 1340.79 2406 1336.99 2406 1332.84Z" fill="#FFFFFF" fill-rule="evenodd"/><g><g><g><path d="M2256 1159.33C2211.38 1159.33 2175.33 1195.38 2175.33 1240 2175.33 1284.62 2211.38 1320.67 2256 1320.67 2300.62 1320.67 2336.67 1284.62 2336.67 1240 2336.67 1195.38 2300.62 1159.33 2256 1159.33ZM2256 1335.79C2203.06 1335.79 2160.21 1292.94 2160.21 1240 2160.21 1187.06 2203.06 1144.21 2256 1144.21 2308.94 1144.21 2351.79 1187.06 2351.79 1240 2351.79 1292.94 2308.94 1335.79 2256 1335.79Z" fill="#FFFFFF"/><path d="M2306.42 1219.83 2276.17 1219.83 2276.17 1189.58C2276.17 1184.04 2271.63 1179.5 2266.08 1179.5L2245.92 1179.5C2240.37 1179.5 2235.83 1184.04 2235.83 1189.58L2235.83 1219.83 2205.58 1219.83C2200.04 1219.83 2195.5 1224.37 2195.5 1229.92L2195.5 1250.08C2195.5 1255.63 2200.04 1260.17 2205.58 1260.17L2235.83 1260.17 2235.83 1290.42C2235.83 1295.96 2240.37 1300.5 2245.92 1300.5L2266.08 1300.5C2271.63 1300.5 2276.17 1295.96 2276.17 1290.42L2276.17 1260.17 2306.42 1260.17C2311.96 1260.17 2316.5 1255.63 2316.5 1250.08L2316.5 1229.92C2316.5 1224.37 2311.96 1219.83 2306.42 1219.83Z" fill="#FFFFFF"/></g></g></g></g></svg>